<?xml version="1.0" encoding="UTF-8" standalone="no"?>
<!--
  - Ubuntu Countdown Widget
  - Copyright (C) 2023 Roberto Leinardi
  -
  - This program is free software: you can redistribute it and/or modify it under the terms
  - of the GNU General Public License as published by the Free Software Foundation,
  - either version 3 of the License, or (at your option) any later version.
  -
  - This program is distributed in the hope that it will be useful, but WITHOUT ANY
  - WARRANTY; without even the implied warranty of MERCHANTABILITY or FITNESS FOR
  - A PARTICULAR PURPOSE. See the GNU General Public License for more details.
  -
  - You should have received a copy of the GNU General Public License along with this
  - program.  If not, see <http://www.gnu.org/licenses/>.
  -->

<svg
   id="Layer_1"
   data-name="Layer 1"
   viewBox="0 0 256 90.208003"
   version="1.1"
   sodipodi:docname="ubuntu-logo-light.svg"
   width="256"
   height="90.208"
   inkscape:version="1.1.2 (0a00cf5339, 2022-02-04)"
   xmlns:inkscape="http://www.inkscape.org/namespaces/inkscape"
   xmlns:sodipodi="http://sodipodi.sourceforge.net/DTD/sodipodi-0.dtd"
   xmlns="http://www.w3.org/2000/svg"
   xmlns:svg="http://www.w3.org/2000/svg">
  <sodipodi:namedview
     id="namedview2357"
     pagecolor="#ffffff"
     bordercolor="#666666"
     borderopacity="1.0"
     inkscape:pageshadow="2"
     inkscape:pageopacity="0.0"
     inkscape:pagecheckerboard="0"
     showgrid="false"
     inkscape:zoom="1.7428492"
     inkscape:cx="300.6571"
     inkscape:cy="167.25486"
     inkscape:window-width="3370"
     inkscape:window-height="1376"
     inkscape:window-x="2630"
     inkscape:window-y="27"
     inkscape:window-maximized="1"
     inkscape:current-layer="Layer_1" />
  <defs
     id="defs2328">
    <style
       id="style2326">.cls-1{fill:#1d1d1b;}.cls-2{fill:#e9500e;}.cls-3{fill:#fff;}</style>
  </defs>
  <path
     class="cls-1"
     d="m 87.4416,83.061373 q -4.075276,0 -6.939452,-1.2402 a 11.948981,11.948981 0 0 1 -4.636084,-3.42547 13.738015,13.738015 0 0 1 -2.569162,-5.108738 23.823239,23.823239 0 0 1 -0.797376,-6.289763 V 41.247503 h 4.015981 v 25.218371 a 18.877558,18.877558 0 0 0 0.797377,5.81711 11.222719,11.222719 0 0 0 2.214856,4.045567 8.638071,8.638071 0 0 0 3.425224,2.362545 13.503845,13.503845 0 0 0 8.977028,0 8.6475107,8.6475107 0 0 0 3.42547,-2.362545 11.222426,11.222426 0 0 0 2.214611,-4.045567 18.877558,18.877558 0 0 0 0.797377,-5.81711 V 41.247503 h 4.01598 v 25.749694 a 23.833445,23.833445 0 0 1 -0.79713,6.289763 13.73793,13.73793 0 0 1 -2.569165,5.108738 11.95801,11.95801 0 0 1 -4.636081,3.42547 q -2.865275,1.240085 -6.939454,1.240205 z"
     id="path2330"
     style="stroke-width:0.250388" />
  <path
     class="cls-1"
     d="m 115.5591,53.472847 q 1.00351,-0.766937 3.21885,-1.624094 a 14.477538,14.477538 0 0 1 5.22659,-0.856551 13.928783,13.928783 0 0 1 5.87653,1.181271 12.218498,12.218498 0 0 1 4.3407,3.30737 14.606925,14.606925 0 0 1 2.68727,5.049566 21.363947,21.363947 0 0 1 0.91548,6.407867 19.138535,19.138535 0 0 1 -1.09276,6.67366 14.363606,14.363606 0 0 1 -3.07092,5.019978 13.209139,13.209139 0 0 1 -4.72483,3.159683 16.407162,16.407162 0 0 1 -6.11249,1.092511 q -4.07528,0 -6.73284,-0.53134 a 34.462668,34.462668 0 0 1 -4.37029,-1.122342 V 37.054368 l 3.83871,-0.70874 z m 0,25.100133 a 16.928011,16.928011 0 0 0 2.62809,0.560928 31.563533,31.563533 0 0 0 4.57715,0.265792 q 4.96105,0 7.97304,-3.218605 3.01199,-3.218482 3.01199,-9.242824 a 21.100953,21.100953 0 0 0 -0.53159,-4.813359 11.29279,11.29279 0 0 0 -1.71261,-3.957052 8.5838847,8.5838847 0 0 0 -3.10075,-2.68702 q -1.91972,-1.003508 -4.75418,-1.003996 a 12.36153,12.36153 0 0 0 -2.59851,0.265791 15.114827,15.114827 0 0 0 -2.30337,0.679031 12.736355,12.736355 0 0 0 -1.8603,0.885892 13.141592,13.141592 0 0 0 -1.32896,0.885893 z"
     id="path2332"
     style="stroke-width:0.250388" />
  <path
     class="cls-1"
     d="m 168.77697,81.112311 q -1.71359,0.47351 -4.60674,1.063171 a 36.163979,36.163979 0 0 1 -7.08689,0.590511 q -3.42608,0 -5.72884,-1.003994 a 9.2980351,9.2980351 0 0 1 -3.72085,-2.83471 11.47814,11.47814 0 0 1 -2.03733,-4.429464 24.678025,24.678025 0 0 1 -0.6201,-5.728838 V 51.641888 h 3.8387 v 15.886897 a 27.12042,27.12042 0 0 0 0.47241,5.492634 q 0.47205,2.245053 1.53558,3.632087 a 5.9928765,5.9928765 0 0 0 2.7462,2.007991 11.92738,11.92738 0 0 0 4.10474,0.6201 32.833118,32.833118 0 0 0 4.7246,-0.29538 q 2.00738,-0.294886 2.53957,-0.53134 V 51.641888 h 3.83895 z"
     id="path2334"
     style="stroke-width:0.250388" />
  <path
     class="cls-1"
     d="m 177.84741,52.705059 q 1.71212,-0.472046 4.6065,-1.063171 a 36.154464,36.154464 0 0 1 7.08714,-0.590512 q 3.48403,0 5.81735,1.003995 a 8.9448459,8.9448459 0 0 1 3.72061,2.864296 11.701964,11.701964 0 0 1 1.97865,4.459052 25.922125,25.922125 0 0 1 0.59051,5.728592 v 17.068171 h -3.83895 V 66.347759 a 28.918781,28.918781 0 0 0 -0.44282,-5.492635 9.1743687,9.1743687 0 0 0 -1.47641,-3.661668 5.7435806,5.7435806 0 0 0 -2.71685,-2.037579 q -1.68314,-0.619854 -4.2226,-0.620099 a 32.331011,32.331011 0 0 0 -4.69527,0.295379 q -1.9795,0.295988 -2.56916,0.531573 v 26.812754 h -3.8387 z"
     id="path2336"
     style="stroke-width:0.250388" />
  <path
     class="cls-1"
     d="m 214.06754,51.641888 h 12.16629 v 3.248193 h -12.16629 v 16.241448 a 16.48825,16.48825 0 0 0 0.44307,4.222604 5.8823554,5.8823554 0 0 0 1.26979,2.50999 4.0191739,4.0191739 0 0 0 2.00799,1.181271 10.684218,10.684218 0 0 0 2.59849,0.295134 q 2.42112,0 3.89788,-0.560925 a 16.936186,16.936186 0 0 0 2.30337,-1.033583 l 0.94483,3.189262 q -0.82745,0.531462 -2.89387,1.210624 a 14.323299,14.323299 0 0 1 -4.4884,0.679274 q -2.83484,0 -4.75419,-0.738203 a 6.8701344,6.8701344 0 0 1 -3.07116,-2.244196 9.1966181,9.1966181 0 0 1 -1.6241,-3.750436 26.054666,26.054666 0 0 1 -0.47241,-5.315355 V 42.66498 l 3.83871,-0.708737 z"
     id="path2338"
     style="stroke-width:0.250388" />
  <path
     class="cls-1"
     d="m 255.99915,81.112311 q -1.7136,0.47351 -4.60675,1.063171 a 36.163979,36.163979 0 0 1 -7.0869,0.590511 q -3.42608,0 -5.72884,-1.003994 a 9.2980276,9.2980276 0 0 1 -3.72083,-2.83471 11.478172,11.478172 0 0 1 -2.03733,-4.429464 24.677884,24.677884 0 0 1 -0.62011,-5.728838 V 51.641888 h 3.83871 v 15.886897 a 27.12023,27.12023 0 0 0 0.47241,5.492634 q 0.47203,2.245053 1.53558,3.632087 a 5.992889,5.992889 0 0 0 2.7462,2.007991 11.927395,11.927395 0 0 0 4.10473,0.6201 32.833143,32.833143 0 0 0 4.72461,-0.29538 q 2.00736,-0.294886 2.53956,-0.53134 V 51.641888 h 3.83894 z"
     id="path2340"
     style="stroke-width:0.250388" />
  <rect
     class="cls-2"
     width="58.573463"
     height="90.208"
     id="rect2342"
     x="0"
     y="0"
     style="stroke-width:0.250388" />
  <circle
     class="cls-3"
     cx="12.775052"
     cy="59.541466"
     r="6.1469398"
     id="circle2344"
     style="stroke-width:0.250388" />
  <circle
     class="cls-3"
     cx="38.374775"
     cy="46.062855"
     r="6.1469398"
     id="circle2346"
     style="stroke-width:0.250388" />
  <path
     class="cls-3"
     d="m 26.638526,75.361221 a 14.970293,14.970293 0 0 1 -10.208802,-7.785977 8.8487421,8.8487421 0 0 1 -5.255695,0.64602 20.011248,20.011248 0 0 0 14.407188,12.074598 20.252296,20.252296 0 0 0 4.364912,0.449183 8.7954647,8.7954647 0 0 1 -1.799786,-5.139303 c -0.506266,-0.05624 -1.011929,-0.138399 -1.507817,-0.244521 z"
     id="path2348"
     style="stroke-width:0.250388" />
  <circle
     class="cls-3"
     cx="36.989895"
     cy="75.395126"
     r="6.1469398"
     id="circle2350"
     style="stroke-width:0.250388" />
  <path
     class="cls-3"
     d="m 45.543645,73.137321 a 20.11078,20.11078 0 0 0 1.007785,-23.596095 8.8597943,8.8597943 0 0 1 -3.456646,4.048267 15.069992,15.069992 0 0 1 -0.492582,14.968239 8.8148322,8.8148322 0 0 1 2.941443,4.579589 z"
     id="path2352"
     style="stroke-width:0.250388" />
  <path
     class="cls-3"
     d="m 12.30078,50.726166 q 0.234007,-0.01284 0.468255,-0.01272 A 8.8711794,8.8711794 0 0 1 17.430668,52.040938 14.991819,14.991819 0 0 1 29.502079,45.5849 8.9130216,8.9130216 0 0 1 31.366906,40.599768 20.205141,20.205141 0 0 0 12.30078,50.726161 Z"
     id="path2354"
     style="stroke-width:0.250388" />
</svg>
